<svg xmlns="http://www.w3.org/2000/svg" xmlns:xlink="http://www.w3.org/1999/xlink" width="160" zoomAndPan="magnify" viewBox="0 0 120 30.000001" height="40" preserveAspectRatio="xMidYMid meet" version="1.0"><defs><g/></defs><g fill="#ff00ff" fill-opacity="1"><g transform="translate(2.595631, 22.421831)"><g><path d="M 19.90625 -2.125 C 19.90625 -2.125 19.976562 -2.203125 20.125 -2.359375 C 20.28125 -2.515625 20.46875 -2.59375 20.6875 -2.59375 L 22.53125 -2.59375 L 22.53125 -13.609375 L 20.6875 -13.609375 C 20.46875 -13.609375 20.28125 -13.679688 20.125 -13.828125 C 19.976562 -13.984375 19.90625 -14.171875 19.90625 -14.390625 L 19.90625 -16.203125 L 1.15625 -16.265625 L 1.15625 -0.015625 L 19.90625 0 L 19.90625 -1.8125 C 19.90625 -2.019531 19.90625 -2.125 19.90625 -2.125 Z M 4.5625 -13.359375 C 4.5625 -13.359375 4.664062 -13.359375 4.875 -13.359375 L 18.8125 -13.359375 C 19.03125 -13.359375 19.210938 -13.28125 19.359375 -13.125 C 19.515625 -12.96875 19.59375 -12.78125 19.59375 -12.5625 L 19.59375 -3.671875 C 19.59375 -3.460938 19.515625 -3.28125 19.359375 -3.125 C 19.210938 -2.96875 19.03125 -2.890625 18.8125 -2.890625 L 4.875 -2.890625 C 4.664062 -2.890625 4.484375 -2.96875 4.328125 -3.125 C 4.171875 -3.28125 4.09375 -3.460938 4.09375 -3.671875 L 4.09375 -12.5625 C 4.09375 -12.78125 4.171875 -12.96875 4.328125 -13.125 C 4.484375 -13.28125 4.5625 -13.359375 4.5625 -13.359375 Z M 4.5625 -13.359375 "/></g></g></g><g fill="#ff00ff" fill-opacity="1"><g transform="translate(25.591857, 22.421831)"><g><path d="M 19.59375 -5.921875 C 19.59375 -5.921875 19.59375 -5.757812 19.59375 -5.4375 L 19.59375 -2.921875 L 1.15625 -2.921875 L 1.15625 0 L 22.53125 0 L 22.53125 -6.921875 L 21.078125 -6.921875 C 20.753906 -6.921875 20.476562 -7.03125 20.25 -7.25 C 20.019531 -7.476562 19.90625 -7.753906 19.90625 -8.078125 L 19.90625 -9.5625 L 5.25 -9.5625 C 4.925781 -9.5625 4.648438 -9.671875 4.421875 -9.890625 C 4.203125 -10.117188 4.09375 -10.394531 4.09375 -10.71875 L 4.09375 -13.234375 L 22.53125 -13.234375 L 22.53125 -16.203125 L 1.15625 -16.203125 L 1.15625 -9.25 L 2.609375 -9.25 C 2.929688 -9.25 3.207031 -9.132812 3.4375 -8.90625 C 3.675781 -8.675781 3.796875 -8.398438 3.796875 -8.078125 L 3.796875 -6.625 L 18.421875 -6.625 C 18.742188 -6.625 19.019531 -6.503906 19.25 -6.265625 C 19.476562 -6.035156 19.59375 -5.921875 19.59375 -5.921875 Z M 19.59375 -5.921875 "/></g></g></g><g fill="#ff00ff" fill-opacity="1"><g transform="translate(48.588082, 22.421831)"><g><path d="M 13.3125 0 L 13.3125 -13.265625 L 22.53125 -13.265625 L 22.53125 -16.203125 L 1.15625 -16.203125 L 1.15625 -13.265625 L 10.359375 -13.265625 L 10.359375 0 Z M 13.3125 0 "/></g></g></g><g fill="#ff00ff" fill-opacity="1"><g transform="translate(71.584306, 22.421831)"><g><path d="M 4.09375 -5.484375 C 4.09375 -5.804688 4.203125 -6.082031 4.421875 -6.3125 C 4.648438 -6.550781 4.925781 -6.671875 5.25 -6.671875 L 19.875 -6.671875 L 19.875 -9.609375 L 5.25 -9.609375 C 4.925781 -9.609375 4.648438 -9.71875 4.421875 -9.9375 C 4.203125 -10.164062 4.09375 -10.441406 4.09375 -10.765625 L 4.09375 -13.28125 L 22.53125 -13.28125 L 22.53125 -16.203125 L 1.15625 -16.203125 L 1.15625 -9.296875 L 2.609375 -9.296875 C 2.929688 -9.296875 3.207031 -9.179688 3.4375 -8.953125 C 3.675781 -8.722656 3.796875 -8.445312 3.796875 -8.125 C 3.796875 -7.800781 3.675781 -7.523438 3.4375 -7.296875 C 3.207031 -7.078125 2.929688 -6.96875 2.609375 -6.96875 L 1.15625 -6.96875 L 1.15625 0 L 22.53125 0 L 22.53125 -2.921875 L 4.09375 -2.921875 Z M 4.09375 -5.484375 "/></g></g></g><g fill="#ff00ff" fill-opacity="1"><g transform="translate(94.580534, 22.421831)"><g><path d="M 9.921875 -2.5625 C 9.921875 -2.5625 10 -2.484375 10.15625 -2.328125 C 10.3125 -2.179688 10.390625 -1.992188 10.390625 -1.765625 L 10.390625 0 L 13.328125 0 L 13.328125 -1.765625 C 13.328125 -1.992188 13.40625 -2.179688 13.5625 -2.328125 C 13.726562 -2.484375 13.921875 -2.5625 14.140625 -2.5625 L 15.0625 -2.5625 L 19.921875 -7.421875 L 19.921875 -8.40625 C 19.921875 -8.613281 20 -8.796875 20.15625 -8.953125 C 20.3125 -9.117188 20.503906 -9.203125 20.734375 -9.203125 L 22.53125 -9.203125 L 22.53125 -16.203125 L 19.640625 -16.203125 L 19.625 -10.8125 C 19.625 -10.34375 19.515625 -10.007812 19.296875 -9.8125 C 19.078125 -9.613281 18.800781 -9.503906 18.46875 -9.484375 L 17.796875 -9.46875 L 13.03125 -4.671875 L 13 -3.703125 C 13 -3.484375 12.914062 -3.296875 12.75 -3.140625 C 12.59375 -2.992188 12.40625 -2.921875 12.1875 -2.921875 L 11.53125 -2.921875 C 11.3125 -2.921875 11.125 -2.992188 10.96875 -3.140625 C 10.8125 -3.296875 10.734375 -3.488281 10.734375 -3.71875 L 10.734375 -4.65625 L 5.734375 -9.625 L 5.4375 -9.625 C 5.300781 -9.625 5.15625 -9.632812 5 -9.65625 C 4.84375 -9.6875 4.695312 -9.738281 4.5625 -9.8125 C 4.4375 -9.882812 4.328125 -10.003906 4.234375 -10.171875 C 4.140625 -10.347656 4.09375 -10.578125 4.09375 -10.859375 L 4.078125 -16.203125 L 1.1875 -16.203125 L 1.15625 -9.234375 C 1.15625 -9.210938 1.164062 -9.203125 1.1875 -9.203125 L 2.984375 -9.203125 C 3.203125 -9.203125 3.390625 -9.125 3.546875 -8.96875 C 3.710938 -8.820312 3.796875 -8.632812 3.796875 -8.40625 L 3.765625 -7.453125 L 8.65625 -2.5625 L 9.578125 -2.5625 C 9.804688 -2.5625 9.921875 -2.5625 9.921875 -2.5625 Z M 9.921875 -2.5625 "/></g></g></g><g fill="#00ffff" fill-opacity="1"><g transform="translate(1.72801, 22.421831)"><g><path d="M 19.90625 -2.125 C 19.90625 -2.125 19.976562 -2.203125 20.125 -2.359375 C 20.28125 -2.515625 20.46875 -2.59375 20.6875 -2.59375 L 22.53125 -2.59375 L 22.53125 -13.609375 L 20.6875 -13.609375 C 20.46875 -13.609375 20.28125 -13.679688 20.125 -13.828125 C 19.976562 -13.984375 19.90625 -14.171875 19.90625 -14.390625 L 19.90625 -16.203125 L 1.15625 -16.265625 L 1.15625 -0.015625 L 19.90625 0 L 19.90625 -1.8125 C 19.90625 -2.019531 19.90625 -2.125 19.90625 -2.125 Z M 4.5625 -13.359375 C 4.5625 -13.359375 4.664062 -13.359375 4.875 -13.359375 L 18.8125 -13.359375 C 19.03125 -13.359375 19.210938 -13.28125 19.359375 -13.125 C 19.515625 -12.96875 19.59375 -12.78125 19.59375 -12.5625 L 19.59375 -3.671875 C 19.59375 -3.460938 19.515625 -3.28125 19.359375 -3.125 C 19.210938 -2.96875 19.03125 -2.890625 18.8125 -2.890625 L 4.875 -2.890625 C 4.664062 -2.890625 4.484375 -2.96875 4.328125 -3.125 C 4.171875 -3.28125 4.09375 -3.460938 4.09375 -3.671875 L 4.09375 -12.5625 C 4.09375 -12.78125 4.171875 -12.96875 4.328125 -13.125 C 4.484375 -13.28125 4.5625 -13.359375 4.5625 -13.359375 Z M 4.5625 -13.359375 "/></g></g></g><g fill="#00ffff" fill-opacity="1"><g transform="translate(24.724236, 22.421831)"><g><path d="M 19.59375 -5.921875 C 19.59375 -5.921875 19.59375 -5.757812 19.59375 -5.4375 L 19.59375 -2.921875 L 1.15625 -2.921875 L 1.15625 0 L 22.53125 0 L 22.53125 -6.921875 L 21.078125 -6.921875 C 20.753906 -6.921875 20.476562 -7.03125 20.25 -7.25 C 20.019531 -7.476562 19.90625 -7.753906 19.90625 -8.078125 L 19.90625 -9.5625 L 5.25 -9.5625 C 4.925781 -9.5625 4.648438 -9.671875 4.421875 -9.890625 C 4.203125 -10.117188 4.09375 -10.394531 4.09375 -10.71875 L 4.09375 -13.234375 L 22.53125 -13.234375 L 22.53125 -16.203125 L 1.15625 -16.203125 L 1.15625 -9.25 L 2.609375 -9.25 C 2.929688 -9.25 3.207031 -9.132812 3.4375 -8.90625 C 3.675781 -8.675781 3.796875 -8.398438 3.796875 -8.078125 L 3.796875 -6.625 L 18.421875 -6.625 C 18.742188 -6.625 19.019531 -6.503906 19.25 -6.265625 C 19.476562 -6.035156 19.59375 -5.921875 19.59375 -5.921875 Z M 19.59375 -5.921875 "/></g></g></g><g fill="#00ffff" fill-opacity="1"><g transform="translate(47.720462, 22.421831)"><g><path d="M 13.3125 0 L 13.3125 -13.265625 L 22.53125 -13.265625 L 22.53125 -16.203125 L 1.15625 -16.203125 L 1.15625 -13.265625 L 10.359375 -13.265625 L 10.359375 0 Z M 13.3125 0 "/></g></g></g><g fill="#00ffff" fill-opacity="1"><g transform="translate(70.716686, 22.421831)"><g><path d="M 4.09375 -5.484375 C 4.09375 -5.804688 4.203125 -6.082031 4.421875 -6.3125 C 4.648438 -6.550781 4.925781 -6.671875 5.25 -6.671875 L 19.875 -6.671875 L 19.875 -9.609375 L 5.25 -9.609375 C 4.925781 -9.609375 4.648438 -9.71875 4.421875 -9.9375 C 4.203125 -10.164062 4.09375 -10.441406 4.09375 -10.765625 L 4.09375 -13.28125 L 22.53125 -13.28125 L 22.53125 -16.203125 L 1.15625 -16.203125 L 1.15625 -9.296875 L 2.609375 -9.296875 C 2.929688 -9.296875 3.207031 -9.179688 3.4375 -8.953125 C 3.675781 -8.722656 3.796875 -8.445312 3.796875 -8.125 C 3.796875 -7.800781 3.675781 -7.523438 3.4375 -7.296875 C 3.207031 -7.078125 2.929688 -6.96875 2.609375 -6.96875 L 1.15625 -6.96875 L 1.15625 0 L 22.53125 0 L 22.53125 -2.921875 L 4.09375 -2.921875 Z M 4.09375 -5.484375 "/></g></g></g><g fill="#00ffff" fill-opacity="1"><g transform="translate(93.712913, 22.421831)"><g><path d="M 9.921875 -2.5625 C 9.921875 -2.5625 10 -2.484375 10.15625 -2.328125 C 10.3125 -2.179688 10.390625 -1.992188 10.390625 -1.765625 L 10.390625 0 L 13.328125 0 L 13.328125 -1.765625 C 13.328125 -1.992188 13.40625 -2.179688 13.5625 -2.328125 C 13.726562 -2.484375 13.921875 -2.5625 14.140625 -2.5625 L 15.0625 -2.5625 L 19.921875 -7.421875 L 19.921875 -8.40625 C 19.921875 -8.613281 20 -8.796875 20.15625 -8.953125 C 20.3125 -9.117188 20.503906 -9.203125 20.734375 -9.203125 L 22.53125 -9.203125 L 22.53125 -16.203125 L 19.640625 -16.203125 L 19.625 -10.8125 C 19.625 -10.34375 19.515625 -10.007812 19.296875 -9.8125 C 19.078125 -9.613281 18.800781 -9.503906 18.46875 -9.484375 L 17.796875 -9.46875 L 13.03125 -4.671875 L 13 -3.703125 C 13 -3.484375 12.914062 -3.296875 12.75 -3.140625 C 12.59375 -2.992188 12.40625 -2.921875 12.1875 -2.921875 L 11.53125 -2.921875 C 11.3125 -2.921875 11.125 -2.992188 10.96875 -3.140625 C 10.8125 -3.296875 10.734375 -3.488281 10.734375 -3.71875 L 10.734375 -4.65625 L 5.734375 -9.625 L 5.4375 -9.625 C 5.300781 -9.625 5.15625 -9.632812 5 -9.65625 C 4.84375 -9.6875 4.695312 -9.738281 4.5625 -9.8125 C 4.4375 -9.882812 4.328125 -10.003906 4.234375 -10.171875 C 4.140625 -10.347656 4.09375 -10.578125 4.09375 -10.859375 L 4.078125 -16.203125 L 1.1875 -16.203125 L 1.15625 -9.234375 C 1.15625 -9.210938 1.164062 -9.203125 1.1875 -9.203125 L 2.984375 -9.203125 C 3.203125 -9.203125 3.390625 -9.125 3.546875 -8.96875 C 3.710938 -8.820312 3.796875 -8.632812 3.796875 -8.40625 L 3.765625 -7.453125 L 8.65625 -2.5625 L 9.578125 -2.5625 C 9.804688 -2.5625 9.921875 -2.5625 9.921875 -2.5625 Z M 9.921875 -2.5625 "/></g></g></g><g fill="#ffffff" fill-opacity="1"><g transform="translate(2.161821, 22.421831)"><g><path d="M 19.90625 -2.125 C 19.90625 -2.125 19.976562 -2.203125 20.125 -2.359375 C 20.28125 -2.515625 20.46875 -2.59375 20.6875 -2.59375 L 22.53125 -2.59375 L 22.53125 -13.609375 L 20.6875 -13.609375 C 20.46875 -13.609375 20.28125 -13.679688 20.125 -13.828125 C 19.976562 -13.984375 19.90625 -14.171875 19.90625 -14.390625 L 19.90625 -16.203125 L 1.15625 -16.265625 L 1.15625 -0.015625 L 19.90625 0 L 19.90625 -1.8125 C 19.90625 -2.019531 19.90625 -2.125 19.90625 -2.125 Z M 4.5625 -13.359375 C 4.5625 -13.359375 4.664062 -13.359375 4.875 -13.359375 L 18.8125 -13.359375 C 19.03125 -13.359375 19.210938 -13.28125 19.359375 -13.125 C 19.515625 -12.96875 19.59375 -12.78125 19.59375 -12.5625 L 19.59375 -3.671875 C 19.59375 -3.460938 19.515625 -3.28125 19.359375 -3.125 C 19.210938 -2.96875 19.03125 -2.890625 18.8125 -2.890625 L 4.875 -2.890625 C 4.664062 -2.890625 4.484375 -2.96875 4.328125 -3.125 C 4.171875 -3.28125 4.09375 -3.460938 4.09375 -3.671875 L 4.09375 -12.5625 C 4.09375 -12.78125 4.171875 -12.96875 4.328125 -13.125 C 4.484375 -13.28125 4.5625 -13.359375 4.5625 -13.359375 Z M 4.5625 -13.359375 "/></g></g></g><g fill="#ffffff" fill-opacity="1"><g transform="translate(25.158046, 22.421831)"><g><path d="M 19.59375 -5.921875 C 19.59375 -5.921875 19.59375 -5.757812 19.59375 -5.4375 L 19.59375 -2.921875 L 1.15625 -2.921875 L 1.15625 0 L 22.53125 0 L 22.53125 -6.921875 L 21.078125 -6.921875 C 20.753906 -6.921875 20.476562 -7.03125 20.25 -7.25 C 20.019531 -7.476562 19.90625 -7.753906 19.90625 -8.078125 L 19.90625 -9.5625 L 5.25 -9.5625 C 4.925781 -9.5625 4.648438 -9.671875 4.421875 -9.890625 C 4.203125 -10.117188 4.09375 -10.394531 4.09375 -10.71875 L 4.09375 -13.234375 L 22.53125 -13.234375 L 22.53125 -16.203125 L 1.15625 -16.203125 L 1.15625 -9.25 L 2.609375 -9.25 C 2.929688 -9.25 3.207031 -9.132812 3.4375 -8.90625 C 3.675781 -8.675781 3.796875 -8.398438 3.796875 -8.078125 L 3.796875 -6.625 L 18.421875 -6.625 C 18.742188 -6.625 19.019531 -6.503906 19.25 -6.265625 C 19.476562 -6.035156 19.59375 -5.921875 19.59375 -5.921875 Z M 19.59375 -5.921875 "/></g></g></g><g fill="#ffffff" fill-opacity="1"><g transform="translate(48.154272, 22.421831)"><g><path d="M 13.3125 0 L 13.3125 -13.265625 L 22.53125 -13.265625 L 22.53125 -16.203125 L 1.15625 -16.203125 L 1.15625 -13.265625 L 10.359375 -13.265625 L 10.359375 0 Z M 13.3125 0 "/></g></g></g><g fill="#ffffff" fill-opacity="1"><g transform="translate(71.150496, 22.421831)"><g><path d="M 4.09375 -5.484375 C 4.09375 -5.804688 4.203125 -6.082031 4.421875 -6.3125 C 4.648438 -6.550781 4.925781 -6.671875 5.25 -6.671875 L 19.875 -6.671875 L 19.875 -9.609375 L 5.25 -9.609375 C 4.925781 -9.609375 4.648438 -9.71875 4.421875 -9.9375 C 4.203125 -10.164062 4.09375 -10.441406 4.09375 -10.765625 L 4.09375 -13.28125 L 22.53125 -13.28125 L 22.53125 -16.203125 L 1.15625 -16.203125 L 1.15625 -9.296875 L 2.609375 -9.296875 C 2.929688 -9.296875 3.207031 -9.179688 3.4375 -8.953125 C 3.675781 -8.722656 3.796875 -8.445312 3.796875 -8.125 C 3.796875 -7.800781 3.675781 -7.523438 3.4375 -7.296875 C 3.207031 -7.078125 2.929688 -6.96875 2.609375 -6.96875 L 1.15625 -6.96875 L 1.15625 0 L 22.53125 0 L 22.53125 -2.921875 L 4.09375 -2.921875 Z M 4.09375 -5.484375 "/></g></g></g><g fill="#ffffff" fill-opacity="1"><g transform="translate(94.146723, 22.421831)"><g><path d="M 9.921875 -2.5625 C 9.921875 -2.5625 10 -2.484375 10.15625 -2.328125 C 10.3125 -2.179688 10.390625 -1.992188 10.390625 -1.765625 L 10.390625 0 L 13.328125 0 L 13.328125 -1.765625 C 13.328125 -1.992188 13.40625 -2.179688 13.5625 -2.328125 C 13.726562 -2.484375 13.921875 -2.5625 14.140625 -2.5625 L 15.0625 -2.5625 L 19.921875 -7.421875 L 19.921875 -8.40625 C 19.921875 -8.613281 20 -8.796875 20.15625 -8.953125 C 20.3125 -9.117188 20.503906 -9.203125 20.734375 -9.203125 L 22.53125 -9.203125 L 22.53125 -16.203125 L 19.640625 -16.203125 L 19.625 -10.8125 C 19.625 -10.34375 19.515625 -10.007812 19.296875 -9.8125 C 19.078125 -9.613281 18.800781 -9.503906 18.46875 -9.484375 L 17.796875 -9.46875 L 13.03125 -4.671875 L 13 -3.703125 C 13 -3.484375 12.914062 -3.296875 12.75 -3.140625 C 12.59375 -2.992188 12.40625 -2.921875 12.1875 -2.921875 L 11.53125 -2.921875 C 11.3125 -2.921875 11.125 -2.992188 10.96875 -3.140625 C 10.8125 -3.296875 10.734375 -3.488281 10.734375 -3.71875 L 10.734375 -4.65625 L 5.734375 -9.625 L 5.4375 -9.625 C 5.300781 -9.625 5.15625 -9.632812 5 -9.65625 C 4.84375 -9.6875 4.695312 -9.738281 4.5625 -9.8125 C 4.4375 -9.882812 4.328125 -10.003906 4.234375 -10.171875 C 4.140625 -10.347656 4.09375 -10.578125 4.09375 -10.859375 L 4.078125 -16.203125 L 1.1875 -16.203125 L 1.15625 -9.234375 C 1.15625 -9.210938 1.164062 -9.203125 1.1875 -9.203125 L 2.984375 -9.203125 C 3.203125 -9.203125 3.390625 -9.125 3.546875 -8.96875 C 3.710938 -8.820312 3.796875 -8.632812 3.796875 -8.40625 L 3.765625 -7.453125 L 8.65625 -2.5625 L 9.578125 -2.5625 C 9.804688 -2.5625 9.921875 -2.5625 9.921875 -2.5625 Z M 9.921875 -2.5625 "/></g></g></g></svg>